<svg xmlns="http://www.w3.org/2000/svg" width="36.212" height="29.551" viewBox="0 0 36.212 29.551">
  <path id="Union_3" data-name="Union 3" d="M4413.3-22860.215a9.232,9.232,0,0,1,.81-7.07,9.207,9.207,0,0,1,5.565-4.428,7.666,7.666,0,0,1,5.881.672,7.683,7.683,0,0,1,3.687,4.629,6.49,6.49,0,0,1-4.445,8.012,5.478,5.478,0,0,1-6.765-3.756,1.451,1.451,0,0,1,1-1.8,1.461,1.461,0,0,1,1.8.994,2.555,2.555,0,0,0,3.159,1.758,3.569,3.569,0,0,0,2.446-4.4,4.784,4.784,0,0,0-2.3-2.885,4.777,4.777,0,0,0-3.664-.418,6.344,6.344,0,0,0-3.825,3.037,6.35,6.35,0,0,0-.551,4.859,8.358,8.358,0,0,0,10.326,5.721,10.808,10.808,0,0,0,7.4-13.354,13.874,13.874,0,0,0-17.143-9.5,17.585,17.585,0,0,0-10.6,8.43,17.585,17.585,0,0,0-1.528,13.451,1.467,1.467,0,0,1-1,1.8,1.462,1.462,0,0,1-1.8-1,20.475,20.475,0,0,1,1.786-15.672l.27-.488.006.006a20.464,20.464,0,0,1,12.066-9.332,16.791,16.791,0,0,1,20.744,11.5,13.724,13.724,0,0,1-9.4,16.959,11.2,11.2,0,0,1-3.1.438A11.278,11.278,0,0,1,4413.3-22860.215Z" transform="translate(-4400.951 22881.605)" fill="#fff"/>
</svg>
