<svg xmlns="http://www.w3.org/2000/svg" width="135.047" height="151.987" viewBox="0 0 135.047 151.987">
  <path id="Intersection_1" data-name="Intersection 1" d="M9432.48-9567.9l0,0a111.84,111.84,0,0,1-68.34-52.5,91.4,91.4,0,0,1,2.709-95.6h13.193a80.676,80.676,0,0,0-6.619,90.236,101.2,101.2,0,0,0,61.829,47.5,101.184,101.184,0,0,0,51.746.3v11.056a111.017,111.017,0,0,1-25.2,2.9A113.1,113.1,0,0,1,9432.48-9567.9Zm6.607-62.7a48.917,48.917,0,0,1-29.9-22.974,40.322,40.322,0,0,1-4.044-30.761,40.261,40.261,0,0,1,18.864-24.6,33.478,33.478,0,0,1,45.707,12.262,27.916,27.916,0,0,1-10.187,38.068,5.353,5.353,0,0,1-7.323-1.966,5.363,5.363,0,0,1,1.963-7.33,17.163,17.163,0,0,0,6.265-23.41,22.754,22.754,0,0,0-31.064-8.333,29.647,29.647,0,0,0-13.871,18.085,29.65,29.65,0,0,0,2.975,22.616,38.309,38.309,0,0,0,23.4,17.983,38.274,38.274,0,0,0,29.258-3.857A49.26,49.26,0,0,0,9487-9659.422v16.2a60.251,60.251,0,0,1-10.519,7.7,48.955,48.955,0,0,1-24.554,6.629A49.383,49.383,0,0,1,9439.088-9630.6Z" transform="translate(-9351.954 9716.001)" fill="rgba(255,255,255,0.4)"/>
</svg>
